<?xml version="1.0" encoding="UTF-8"?>
<svg viewBox="0 0 793.7 1122.5" xmlns="http://www.w3.org/2000/svg">
 <g fill="#fff" stroke="#333" stroke-dashoffset="1.25" stroke-width="14.25">
  <path d="m100.56 364.89c-9.311 2.2122-15.031 11.497-12.818 20.808l77.087 340.02c2.2122 9.311 11.466 15.038 20.778 12.826l434.19-103.16c9.311-2.2122 15.031-11.497 12.818-20.808l-54.215-263.8c-2.2123-9.3111-11.497-14.311-20.808-12.818l-253.26 37.674s-23.54-41.655-32.852-39.442l-170.92 28.704h-1.6e-5z"/>
  <path d="m657.01 397.91l-426.68 70.658c-9.311 2.2122-17.252 9.9533-18.256 18.94l-46.741 239.1c1.9673 8.2802 11.047 14.438 20.358 12.225l434.18-103.16c9.311-2.2122 12.344-10.119 14.245-18.31l43.251-208.51c0.58221-15.164-11.767-11.726-20.358-10.953h-6.1e-5z" opacity=".825"/>
 </g>
</svg>
